<svg width="36" height="32" viewBox="0 0 36 32" fill="none" xmlns="http://www.w3.org/2000/svg">
<path d="M0.305298 1.5C0.305298 0.66875 0.974048 0 1.8053 0H4.64905C6.02405 0 7.2428 0.8 7.81155 2H33.499C35.1428 2 36.3428 3.5625 35.9115 5.15L33.349 14.6687C32.8178 16.6312 31.0365 18 29.0053 18H10.974L11.3115 19.7812C11.449 20.4875 12.0678 21 12.7865 21H30.8053C31.6365 21 32.3053 21.6687 32.3053 22.5C32.3053 23.3312 31.6365 24 30.8053 24H12.7865C10.624 24 8.7678 22.4625 8.3678 20.3437L5.1428 3.40625C5.09905 3.16875 4.8928 3 4.64905 3H1.8053C0.974048 3 0.305298 2.33125 0.305298 1.5ZM8.3053 29C8.3053 28.606 8.38289 28.2159 8.53366 27.8519C8.68442 27.488 8.9054 27.1573 9.18398 26.8787C9.46255 26.6001 9.79327 26.3791 10.1572 26.2284C10.5212 26.0776 10.9113 26 11.3053 26C11.6993 26 12.0894 26.0776 12.4533 26.2284C12.8173 26.3791 13.148 26.6001 13.4266 26.8787C13.7052 27.1573 13.9262 27.488 14.0769 27.8519C14.2277 28.2159 14.3053 28.606 14.3053 29C14.3053 29.394 14.2277 29.7841 14.0769 30.148C13.9262 30.512 13.7052 30.8427 13.4266 31.1213C13.148 31.3999 12.8173 31.6209 12.4533 31.7716C12.0894 31.9224 11.6993 32 11.3053 32C10.9113 32 10.5212 31.9224 10.1572 31.7716C9.79327 31.6209 9.46255 31.3999 9.18398 31.1213C8.9054 30.8427 8.68442 30.512 8.53366 30.148C8.38289 29.7841 8.3053 29.394 8.3053 29ZM29.3053 26C30.1009 26 30.864 26.3161 31.4266 26.8787C31.9892 27.4413 32.3053 28.2043 32.3053 29C32.3053 29.7956 31.9892 30.5587 31.4266 31.1213C30.864 31.6839 30.1009 32 29.3053 32C28.5096 32 27.7466 31.6839 27.184 31.1213C26.6214 30.5587 26.3053 29.7956 26.3053 29C26.3053 28.2043 26.6214 27.4413 27.184 26.8787C27.7466 26.3161 28.5096 26 29.3053 26Z" fill="#3D057D"/>
</svg>
